<svg
    id="Capa_1"
    enable-background="new 0 0 512 512"
    height="512"
    viewBox="0 0 512 512"
    width="512"
    xmlns="http://www.w3.org/2000/svg">
    <g>
        <g>
            <path
                d="m275.413 333.519 30.701-28.409-30.701-28.409c-15.548-14.388-35.778-22.311-56.963-22.311h-18.098c.104.095.211.187.314.283l54.507 50.438-54.507 50.438c-.104.096-.211.188-.315.283h18.099c21.184-.001 41.414-7.925 56.963-22.313z"
                fill="#333D51"/>
            <path
                d="m218.45 224.377c28.765 0 56.234 10.759 77.346 30.295l54.508 50.438-54.508 50.438c-21.113 19.536-48.581 30.296-77.346 30.296h-45.526v46.441c.191 2.497.288 5.02.294 7.564h162.277c5.859-27.11 27.254-48.506 54.365-54.365v-160.748c-27.111-5.859-48.506-27.255-54.365-54.365h-162.571v54.006z"
                fill="#333D51"/>
            <path
                d="m172.924 270.642v68.935c2.568-1.88 38.061-34.468 38.061-34.468s-35.493-32.587-38.061-34.467z"
                fill="#333D51"/>
            <path
                d="m512 129.566v-30.012l-339.076-.129v41.149h190.987v15.006c0 22.583 18.373 40.955 40.955 40.955h15.006v217.579h-15.006c-22.582 0-40.955 18.372-40.955 40.955v15.006h-195.183c-4.952 15.996-13.783 30.302-25.388 41.819l368.66-.798v-30.012h-44.295v-33.576h44.295v-30.012h-44.295v-33.576h44.295v-30.012h-44.295v-33.576h44.295v-30.012h-44.295v-33.576h44.295v-30.012h-44.295v-33.576h44.295v-30.012h-44.295v-33.576h44.295z"
                fill="#333D51"/>
            <path
                d="m71.811 82.922c-38.285 0-69.645 30.059-71.811 67.81v139.631c18.349-18.824 43.962-30.535 72.263-30.535 27.997 0 53.367 11.459 71.672 29.929v-138.837c-2.078-37.84-33.776-67.998-72.124-67.998z"
                fill="#333D51"/>
            <path
                d="m71.811 53.934c28.228 0 53.787 11.645 72.125 30.384v-12.246c0-39.683-32.285-71.968-71.968-71.968-39.683.001-71.968 32.285-71.968 71.968v11.932c18.316-18.553 43.742-30.07 71.811-30.07z"
                fill="#333D51"/>
            <path
                d="m143.641 354.437c-3.227-36.719-34.129-65.619-71.672-65.619-39.684-.001-71.969 32.284-71.969 71.968 0 2.729.167 5.419.464 8.07 18.293-18.37 43.593-29.757 71.504-29.757s53.211 11.387 71.504 29.757c.064-.571.118-1.146.168-1.721v-12.698z"
                fill="#333D51"/>
        </g>
        <circle cx="71.968" cy="439.928" r="71.968"/>
    </g>
</svg>