<svg height="512" viewBox="0 0 30 60" width="512" xmlns="http://www.w3.org/2000/svg"><g id="Page-1" fill="none" fill-rule="evenodd"><g id="017---Lamp" fill="rgb(0,0,0)" fill-rule="nonzero" transform="translate(0 -1)"><path id="Shape" d="m19.645 9.771c-.0818138-.34797668-.3430563-.62587325-.6853198-.72900874-.3422636-.1031355-.7135503-.01584119-.974.229-.2604498.24484119-.370494.61003206-.2886802.95800874.8420048 3.5646092 2.1365093 7.0068754 3.852 10.243.2606784.4871151.8668849.6706784 1.354.41s.6706784-.8668849.41-1.354c-1.6350957-3.0819971-2.8678347-6.3611231-3.668-9.757z"/><path id="Shape" d="m11.559 9.026c-.5369763-.12491236-1.0737523.20833607-1.2.745-.80015429 3.3957364-2.03254206 6.6748222-3.667 9.757-.17430021.3154563-.16536779.7002998.02338066 1.0073295.18874846.3070298.52810885.4887406.88827732.475629.36016847-.0131117.68541798-.2190172.85134202-.5389585 1.7130702-3.2364666 3.0052175-6.6787201 3.845-10.243.127031-.53673277-.2045038-1.07497354-.741-1.203z"/><path id="Shape" d="m15 11c-.5522847 0-1 .4477153-1 1v8c0 .5522847.4477153 1 1 1s1-.4477153 1-1v-8c0-.5522847-.4477153-1-1-1z"/><path id="Shape" d="m11.006 38.946c-.0192923-.3572656-.2277181-.6771003-.5467654-.8390254-.3190472-.1619251-.70024507-.1413405-.99999997.054-.29975491.1953404-.47252697.5357598-.45323463.8930254.30791126 2.3734942 1.2269029 4.6263503 2.667 6.538.2074686.2986012.5606659.4610609.9224016.4242757.3617358-.0367852.6749999-.2670178.8181131-.60127.1431132-.3342521.0935207-.7198453-.1295147-1.0070057-1.2066316-1.6000971-1.9901358-3.4787187-2.278-5.462z"/><path id="Shape" d="m0 31c-.0063217 1.5272079 1.13568032 2.8154186 2.65263035 2.9922422 1.51695003.1768237 2.92462954-.8141827 3.26974327-2.3018992.34511373-1.4877166-.48250048-2.9972562-1.92237362-3.506343v-3.184h8v2.184c-1.1943509.4222546-1.9947486 1.5492146-2 2.816v1.38c-2.95106737 1.2853697-4.89763705 4.1557814-5 7.373 0 3.4 2.375 9.152 6 11.815v3.755l-3.247 1.3c-1.23926367.4978112-1.95170122 1.8042692-1.69903206 3.1156611.25266915 1.3113919 1.39952186 2.2596158 2.73503206 2.2613389h12.422c1.3364837-.0005323 2.4847301-.94908 2.7375379-2.2614356.2528079-1.3123556-.4608936-2.6195827-1.7015379-3.1165644l-3.247-1.299v-3.755c3.625-2.663 6-8.414 6-11.815-.1023629-3.2172186-2.0489326-6.0876303-5-7.373v-1.38c-.0052514-1.2667854-.8056491-2.3937454-2-2.816v-2.184h10.005c.7582785-.003199 1.4495337-.4349529 1.7850857-1.114954.3355519-.680001.2576836-1.4912851-.2010857-2.095046-3.2906665-4.4607602-5.4783433-9.6373024-6.384-15.106-.1517245-.97226685-.9909735-1.68785941-1.975-1.684h-1.33c-.4731925-2.33032398-2.5221184-4.00501256-4.9-4.00501256s-4.4268075 1.67468858-4.9 4.00501256h-1.33c-.98245811-.00131014-1.81900517.71421361-1.97 1.685-.90737174 5.4687657-3.09676264 10.6449669-6.389 15.105-.45930543.6044781-.53676523 1.4168928-.19996508 2.0972757s1.02978554 1.1114152 1.78896508 1.1127243v3.184c-1.19435086.4222546-1.99474861 1.5492146-2 2.816zm12-1c0-.5522847.4477153-1 1-1h4c.5522847 0 1 .4477153 1 1v1h-6zm10 28.211c-.0005509.4355243-.3534757.7884491-.789.789h-12.422c-.37785063-.0002123-.70250893-.2682788-.77421783-.6392626s.12966428-.7407291.48021783-.8817374l3.698-1.479h5.614l3.7 1.479c.2991034.1195553.4946443.409892.493.732zm-5-4.211h-4v-2.359c1.2903805.478625 2.7096195.478625 4 0zm6-15.247c0 3.704-3.7 11.247-8 11.247s-8-7.543-8-11.247c.12728368-2.5920086 1.79146118-4.8569751 4.227-5.753h7.546c2.4355388.8960249 4.0997163 3.1609914 4.227 5.753zm-7-11.753h-2v-2h2zm-1-24c1.2667854.00525139 2.3937454.80564913 2.816 2h-5.632c.4222546-1.19435087 1.5492146-1.99474861 2.816-2zm-6.23 4h12.46c.962178 5.7929232 3.2821075 11.2757698 6.77 16h-25.995c3.48611089-4.7247037 5.8043124-10.2075158 6.765-16zm-5.77 25c-.55228475 0-1-.4477153-1-1s.44771525-1 1-1 1 .4477153 1 1-.44771525 1-1 1z"/></g></g></svg>