<svg
    id="Capa_1"
    enable-background="new 0 0 512 512"
    height="512"
    viewBox="0 0 512 512"
    width="512"
    xmlns="http://www.w3.org/2000/svg"><path
    d="m51 0v512h30v-39.999h350v39.999h30v-512zm380 147.334h-31v-43.334c0-27.019-21.981-49-49-49s-49 21.981-49 49v43.334h-31.033v-117.334h160.033zm-95 132.333c0-8.271 6.729-15 15-15s15 6.729 15 15-6.729 15-15 15-15-6.729-15-15zm30-42.42v-30.047h-30v30.047c-17.459 6.192-30 22.865-30 42.42 0 5.259.915 10.305 2.58 15h-37.613v-117.333h160.033v117.333h-37.58c1.665-4.695 2.58-9.741 2.58-15 0-19.555-12.541-36.228-30-42.42zm-186 27.42v30h-38v-30zm3.183-30 12.071-30.08-27.842-11.174-6.412 15.978-6.412-15.978-27.842 11.174 12.071 30.08h-26.817v60h-31v-117.333h159.967v117.333h-30.967v-60zm186.817-87.333h-38v-43.334c0-10.477 8.523-19 19-19s19 8.523 19 19zm-129.033-117.334v117.334h-34.967v-63.334h-30v63.334h-30v-77.334h-30v77.334h-35v-117.334zm-159.967 294.667h159.967v117.334h-30.967v-92.334h-98v92.334h-31zm99 117.334h-38v-62.334h38zm216 0v-77.334h-30v77.334h-30v-63.334h-30v63.334h-35.033v-117.334h160.033v117.334z"/>
</svg>