<svg
    id="Layer_1"
    enable-background="new 0 0 512 512"
    height="512"
    viewBox="0 0 512 512"
    width="512"
    xmlns="http://www.w3.org/2000/svg">
    <g id="XMLID_1427_">
        <g id="XMLID_240_"><path
            id="XMLID_584_"
            d="m448 0h-384c-5.523 0-10 4.477-10 10v492c0 5.523 4.477 10 10 10h54c5.523 0 10-4.477 10-10v-44h256v44c0 5.523 4.478 10 10 10h54c5.522 0 10-4.477 10-10v-195c0-5.523-4.478-10-10-10s-10 4.477-10 10v131h-150v-352h150v131c0 5.523 4.478 10 10 10s10-4.477 10-10v-207c0-5.523-4.478-10-10-10zm-374 438v-352h150v352zm34 54h-34v-34h34zm330-34v34h-34v-34zm-170-20h-24v-352h24zm-194-372v-46h364v46z"/><path
            id="XMLID_591_"
            d="m448 252c-2.63 0-5.21 1.07-7.07 2.93s-2.93 4.44-2.93 7.07 1.069 5.21 2.93 7.07 4.44 2.93 7.07 2.93 5.21-1.07 7.069-2.93c1.86-1.86 2.931-4.44 2.931-7.07s-1.07-5.21-2.931-7.07c-1.859-1.86-4.439-2.93-7.069-2.93z"/><path
            id="XMLID_1176_"
            d="m320 242.5v39c0 5.523 4.478 10 10 10s10-4.477 10-10v-39c0-5.523-4.478-10-10-10s-10 4.477-10 10z"/><path
            id="XMLID_1420_"
            d="m182 232.5c-5.523 0-10 4.477-10 10v39c0 5.523 4.477 10 10 10s10-4.477 10-10v-39c0-5.523-4.477-10-10-10z"/></g>
    </g>
</svg>