<?xml version="1.0"?>
<svg xmlns="http://www.w3.org/2000/svg" width="512" height="512" viewBox="0 0 512 512">
<g>
<path d="M480,8H32a8,8,0,0,0-8,8V48a8,8,0,0,0,8,8V472a8,8,0,0,0,8,8h8v16a8,8,0,0,0,8,8H80a8,8,0,0,0,7.59-5.47L93.77,480H426.23l6.18,18.53A8,8,0,0,0,440,504h24a8,8,0,0,0,8-8V480a8,8,0,0,0,8-8V56a8,8,0,0,0,8-8V16A8,8,0,0,0,480,8ZM74.23,488H64v-8H76.9ZM456,488H445.77l-2.67-8H456Zm8-24H48V56H464Zm8-424H40V24H472Z" fill="#333D51"/>
<path d="M64,456H248a8,8,0,0,0,8-8V72a8,8,0,0,0-8-8H64a8,8,0,0,0-8,8V448A8,8,0,0,0,64,456ZM72,80H240V440H72Z" fill="#333D51"/>
<path d="M224,224a8,8,0,0,0-8,8v48a8,8,0,0,0,16,0V232A8,8,0,0,0,224,224Z" fill="#333D51"/>
<path d="M272,456H448a8,8,0,0,0,8-8V384a8,8,0,0,0-8-8H272a8,8,0,0,0-8,8v64A8,8,0,0,0,272,456Zm8-64H440v48H280Z" fill="#333D51"/>
<path d="M376,400H344a8,8,0,0,0,0,16h32a8,8,0,0,0,0-16Z" fill="#333D51"/>
<path d="M272,368H448a8,8,0,0,0,8-8V296a8,8,0,0,0-8-8H272a8,8,0,0,0-8,8v64A8,8,0,0,0,272,368Zm8-64H440v48H280Z" fill="#333D51"/>
<path d="M376,312H344a8,8,0,0,0,0,16h32a8,8,0,0,0,0-16Z" fill="#333D51"/>
<path d="M272,280H448a8,8,0,0,0,8-8V72a8,8,0,0,0-8-8H272a8,8,0,0,0-8,8V272A8,8,0,0,0,272,280Zm8-200H440V264H280Z" fill="#333D51"/>
<path d="M393.657,142.343a8,8,0,0,0-11.314,0l-72,72a8,8,0,0,0,11.314,11.314l72-72A8,8,0,0,0,393.657,142.343Z" fill="#333D51"/>
<path d="M324,184a7.974,7.974,0,0,0,5.657-2.343l40-40a8,8,0,0,0-11.314-11.314l-40,40A8,8,0,0,0,324,184Z" fill="#333D51"/>
<path d="M386.343,178.343l-32,32a8,8,0,0,0,11.314,11.314l32-32a8,8,0,0,0-11.314-11.314Z" fill="#333D51"/>
</g>
</svg>
